<?xml version="1.0" encoding="UTF-8" standalone="no"?>
<svg width="460px" height="460px" viewBox="0 0 460 460" version="1.1" xmlns="http://www.w3.org/2000/svg" xmlns:xlink="http://www.w3.org/1999/xlink">
    <!-- Generator: Sketch 39.1 (31720) - http://www.bohemiancoding.com/sketch -->
    <title>icon copy 3</title>
    <desc>Created with Sketch.</desc>
    <defs>
        <circle id="path-1" cx="170" cy="279" r="169"></circle>
        <mask id="mask-2" maskContentUnits="userSpaceOnUse" maskUnits="objectBoundingBox" x="0" y="0" width="338" height="338" fill="white">
            <use xlink:href="#path-1"></use>
        </mask>
        <mask id="mask-3" maskContentUnits="userSpaceOnUse" maskUnits="objectBoundingBox" x="0" y="0" width="338" height="338" fill="white">
            <use xlink:href="#path-1"></use>
        </mask>
        <linearGradient x1="103.20371%" y1="46.7962897%" x2="3.20371028%" y2="53.2037103%" id="linearGradient-4">
            <stop stop-color="#F35A2E" offset="0%"></stop>
            <stop stop-color="#FFC33E" offset="100%"></stop>
        </linearGradient>
        <linearGradient x1="3.20371028%" y1="53.2037103%" x2="103.20371%" y2="46.7962897%" id="linearGradient-5">
            <stop stop-color="#F35A2E" offset="0%"></stop>
            <stop stop-color="#FFC33E" offset="100%"></stop>
        </linearGradient>
        <path d="M1,43.1919999 C1.48447846,45.100165 21.397,51.631 21.397,51.631 C27.179,52.697 29.955,52.401 41.074,49.529 C55.612,45.775 58.025,46.011 67,52.06 C80.589,61.22 87.55,64.268 96,64.759 C106.521,65.37 115.301,63.067 127.606,56.466 C139.666,49.998 141.975,49.778 151.883,54.154 C155.811,55.889 159.32,57.014 159.681,56.653 C160.817,55.516 157.711,50.84 151.481,44.309 C143.808,36.266 142.492,36.211 124.719,43.192 C113.443,47.62 110.279,48.444 103.195,48.796 C94.312,49.239 86.596,47.839 83.75,45.27 C81.39,43.139 81.544,39.723 84.105,37.405 C85.898,35.782 88.311,35.422 100.421,34.976 C114.633,34.451 114.633,34.451 121.627,30.226 C126.066,27.543 129.816,26 131.893,26 C135.776,26 135.683,24.149 131.704,22.209 C129.402,21.086 127.956,21.261 120.629,23.545 C112.306,26.14 112.104,26.154 104.351,24.645 C85.454,20.966 80.448,21.557 71.119,28.57 C66.133,32.318 64.515,33 60.613,33 C58.076,33 56.016,32.662 56.035,32.25 C56.131,30.218 59.004,26.774 63.75,23.002 C66.637,20.707 69,18.36 69,17.786 C69,16.465 59.888,17.587 55.582,19.439 C53.887,20.168 49.177,23.783 45.116,27.473 C33.032,38.452 30.481,40 24.472,40 C21.23,40 9.99999945,40.0000004 5.9999999,40.0000004 C2.00000035,40.0000004 0.382478457,40.7598317 1,43.1919999 Z" id="path-6"></path>
        <mask id="mask-7" maskContentUnits="userSpaceOnUse" maskUnits="objectBoundingBox" x="-1" y="-1" width="161.039497" height="49.6431218">
            <rect x="-0.127575498" y="16.2104248" width="161.039497" height="49.6431218" fill="white"></rect>
            <use xlink:href="#path-6" fill="black"></use>
        </mask>
        <linearGradient x1="50%" y1="0%" x2="56.4074206%" y2="100%" id="linearGradient-8">
            <stop stop-color="#F35A2E" offset="0%"></stop>
            <stop stop-color="#FFC33E" offset="100%"></stop>
        </linearGradient>
    </defs>
    <g id="Page-1" stroke="none" stroke-width="1" fill="none" fill-rule="evenodd">
        <g id="icon-copy-3">
            <g id="olizilla" transform="translate(7.000000, 6.000000)">
                <g id="ring">
                    <use stroke="#CD2129" mask="url(#mask-2)" stroke-width="30" fill="#FFFFFF" fill-rule="evenodd" xlink:href="#path-1"></use>
                    <use stroke="#000000" mask="url(#mask-3)" stroke-width="6" xlink:href="#path-1"></use>
                </g>
                <g id="torso" transform="translate(1.000000, 97.000000)">
                    <path d="M136.728,7.261 C134.654,11.242 132.966,15.072 132.978,15.772 C133.008,17.482 126.126,31.122 118.736,44 C115.422,49.775 111.586,56.49 110.212,58.923 C106.554,65.398 92.692,79.392 84.527,84.853 C80.628,87.462 72.032,91.962 65.425,94.855 C58.585,97.85 50.477,102.313 46.592,105.222 C33.739,114.848 24.089,129.391 20.181,145.025 C18.044,153.571 16.15,157.651 12.994,160.502 C7.034,165.889 0.019,188.043 0.657,199.465 C1.009,205.781 3.939,214 5.838,214 C6.707,214 10,223.699 10,226.26 C10,228.256 18.911,235.985 21.222,235.994 C22.347,235.998 23.719,237.821 25.177,241.25 C33.012,259.674 43.168,274.272 59.452,290.517 C84.151,315.156 109.579,328.563 142.129,334.109 C160.034,337.16 186.3,336.496 203.5,332.558 C216.183,329.654 228.477,325.312 238.875,320.063 C245.16,316.891 245.16,316.891 244.83,310.112 C244.5,303.333 244.5,303.333 250.523,306.154 C253.836,307.706 258.786,309.25 261.523,309.585 C264.26,309.92 268.975,311.082 272,312.167 C275.025,313.252 280.65,315.274 284.5,316.662 C293.387,319.865 306.73,320.754 319.888,319.021 C329.5,317.755 329.5,317.755 343.5,321.485 C355.42,324.661 358.391,325.114 363.5,324.536 C371.552,323.624 370.936,323.625 384.072,324.501 C401.952,325.693 405.085,323.932 403.655,313.5 C403.058,309.142 403.058,309.142 408.038,307.487 C413.572,305.649 415.272,303.456 414.81,298.746 C414.581,296.415 413.434,294.774 410.444,292.499 C406.539,289.53 406.435,289.303 407.648,286.457 C410.702,279.299 408.342,274.082 401.064,271.901 C397.848,270.938 395.947,271.021 390.611,272.362 C387.024,273.263 382.86,274 381.357,274 C378.626,274 378.626,274 381.504,270.995 C383.969,268.423 384.246,267.601 383.428,265.276 C382.221,261.844 376.599,258 372.787,258 C371.183,258 367.762,258.851 365.185,259.89 C362.608,260.93 358.331,262.554 355.68,263.5 C353.029,264.445 348.099,267.434 344.726,270.142 C341.352,272.849 337.583,275.318 336.349,275.627 C333.02,276.463 328.227,274.474 321.5,269.466 C311.647,262.132 304.062,258.892 293.769,257.621 C284.684,256.5 284.684,256.5 282.483,249.973 C280.059,242.786 277.781,237.992 274.723,233.645 C272.996,231.19 272.699,229.085 272.607,218.626 C272.5,206.462 272.5,206.462 268.355,199.481 C266.075,195.642 263.669,190.475 263.009,188 C259.024,173.071 247.842,157.326 232.486,145.022 C226.625,140.326 226.44,140.028 225.22,133.352 C224.168,127.588 224.212,125.244 225.497,118.595 C226.338,114.247 227.47,104.122 228.013,96.095 C228.556,88.068 229.106,80.283 229.235,78.795 C229.444,76.376 228.199,75.223 217.485,67.918 C201.88,57.279 194.547,51.459 183.175,40.689 C178.046,35.832 170.171,29.465 165.675,26.541 C155.589,19.98 150.563,14.852 148.509,9.028 C146.887,4.428 143.476,-0.008 141.576,0.011 C140.984,0.017 138.803,3.279 136.728,7.261 M132.25,169.662 C131.563,169.94 131,170.804 131,171.583 C131,173.268 130.049,173.349 126.433,171.975 C123.131,170.719 120.338,171.501 118.966,174.064 C118.16,175.569 118.421,176.651 120.155,178.996 C121.925,181.39 123.125,182 126.063,182 C132.186,182 136.176,180.892 135.555,179.364 C133.531,174.389 133.531,174.386 135.81,176.386 C137.68,178.028 138.035,178.072 138.552,176.726 C139.293,174.795 136.378,168.972 134.724,169.079 C134.051,169.122 132.938,169.385 132.25,169.662 M108.25,191.095 C105.597,192.086 105.475,193.085 107.526,197.05 C108.992,199.885 109.32,200 115.967,200 C119.77,200 123.12,199.615 123.41,199.145 C124.007,198.18 120.606,194.819 117.317,193.126 C112.83,190.815 110.437,190.279 108.25,191.095 M100.667,213.667 C100.3,214.033 100,215.555 100,217.048 C100,219.439 100.548,219.9 104.593,220.919 C108.96,222.019 113.06,221.657 112.948,220.183 C112.92,219.807 111.071,218.038 108.84,216.25 C104.957,213.139 102.098,212.235 100.667,213.667 M374.4,264.162 C373.6,265.457 377.416,269 379.611,269 C381.697,269 381.282,265.221 379.066,264.035 C376.557,262.693 375.287,262.727 374.4,264.162 M397.584,276.863 C396.737,278.234 398.572,282.622 400.264,283.271 C401.044,283.57 402.307,283.428 403.072,282.956 C404.218,282.247 404.103,281.615 402.42,279.361 C400.122,276.283 398.47,275.43 397.584,276.863 M402.485,299.048 C401.887,300.932 403.396,304.043 404.872,303.968 C405.218,303.951 406.4,303.247 407.5,302.403 C409.485,300.882 409.482,300.856 407.139,298.935 C404.146,296.481 403.293,296.502 402.485,299.048 M394.39,315.426 C393.48,317.797 394.767,320.191 396.747,319.81 C397.854,319.597 398.5,318.561 398.5,317 C398.5,314.149 395.344,312.941 394.39,315.426" id="Shape" fill="#367547"></path>
                    <path d="M137.821,7.288 C135.797,11.254 133.9,15.644 133.604,17.042 C133.079,19.525 129.753,25.772 115.5,51.048 C109.555,61.591 106.988,64.972 98.473,73.481 C87.431,84.514 82.611,87.721 65.816,95.21 C53.167,100.851 48.767,103.618 40.639,111.047 C30.416,120.391 23.251,133.477 19.5,149.658 C18.315,154.77 17.067,157.385 14.563,160 C9.871,164.901 7.182,170.749 4.008,182.956 C0.22,197.529 0.505,203.768 5.318,211.6 C7.312,214.845 9.493,219.903 10.165,222.841 C11.15,227.154 12.173,228.827 15.475,231.533 C17.724,233.376 20.787,235.349 22.282,235.917 C23.818,236.501 25.006,237.722 25.015,238.725 C25.037,241.383 33.22,257.108 39.393,266.355 C44.406,273.864 62.783,295.557 63.508,294.82 C63.681,294.644 62.965,286.4 61.916,276.5 C60.868,266.6 60.296,256.925 60.645,255 C60.995,253.075 64.821,244.413 69.146,235.75 C77.012,220 77.012,220 85.256,219.9 C89.79,219.845 94.625,219.465 96,219.054 C98.653,218.261 98.39,218.16 81.658,213.518 C78.719,212.703 75.102,211.082 73.62,209.915 C71.078,207.917 70.961,207.464 71.578,202.016 C72.734,191.797 71.212,191.847 64.202,202.256 C55.604,215.024 55.811,214.802 50.895,216.546 C43.906,219.026 35.326,219.43 28.356,217.607 C20.23,215.482 20,215.519 20,218.965 C20,223.126 25.126,228.688 30.228,230.061 C33.681,230.991 35.46,230.79 42.386,228.684 C50.507,226.215 68.622,224.185 67.587,225.86 C67.287,226.344 63.646,228.419 59.496,230.47 C51.949,234.198 51.949,234.198 39.292,233.468 C26.635,232.738 26.635,232.738 21.921,228.329 C18.63,225.251 17.002,222.826 16.527,220.293 C16.153,218.299 14.531,213.355 12.923,209.307 C9.521,200.742 9.198,194.451 11.528,182.165 C13.442,172.078 15.17,167.866 20.085,161.308 C24.564,155.333 25.923,152.382 28.976,142 C34.889,121.889 47.415,109.077 71.92,98.073 C95.571,87.453 107.103,76.592 121.369,51.501 C126.247,42.922 131.449,32.662 132.929,28.701 C134.41,24.741 137.723,17.455 140.293,12.51 C144.722,3.987 144.875,3.431 143.232,1.798 C141.591,0.166 141.307,0.454 137.821,7.288 M189.901,49.811 C191.178,51.633 196.446,61.667 201.606,72.11 C210.26,89.624 211.418,92.7 216.531,111.751 C219.58,123.11 222.395,134.499 222.787,137.059 C223.444,141.347 224.089,142.188 231,147.754 C235.125,151.076 239.596,154.971 240.936,156.41 C248.348,164.367 256.508,178.63 259.009,188 C259.669,190.475 262.075,195.647 264.355,199.493 C268.5,206.486 268.5,206.486 268.511,217.993 C268.521,229.223 268.598,229.616 271.69,234.334 C273.433,236.993 276.073,242.618 277.558,246.834 C281.274,257.384 283.542,259.326 294.523,261.363 C304.131,263.145 308.006,265.059 320.459,274.174 C327.28,279.166 329.042,280 332.777,280 C336.467,280 337.995,279.299 342.746,275.429 C348.972,270.358 354.954,267 357.764,267 C358.779,267 361.737,265.65 364.339,264 C366.941,262.35 370.291,261.022 371.785,261.048 C376.011,261.123 381.332,264.191 382.109,267 C382.579,268.699 382.833,268.918 382.9,267.684 C383.171,262.749 377.179,258.486 371.12,259.302 C362.549,260.457 351.016,265.758 343.641,271.932 C339.469,275.425 338.117,276 334.076,276 C330.024,276 328.406,275.307 322.435,271.013 C311.556,263.189 301.86,258.955 292.704,258.03 C288.417,257.597 284.783,257.075 284.628,256.871 C284.474,256.667 283.113,253.05 281.603,248.834 C280.094,244.618 277.43,238.993 275.684,236.334 C272.563,231.582 272.509,231.295 272.504,219.5 C272.5,207.5 272.5,207.5 268.186,200.216 C265.813,196.21 263.184,190.616 262.344,187.786 C259.916,179.612 256.472,172.519 251.65,165.767 C247.332,159.72 235.946,148.132 229.269,142.989 C226.562,140.904 225.814,139.385 224.665,133.634 C223.498,127.796 223.501,125.775 224.685,120.134 C226.415,111.888 229.234,76.793 228.234,75.945 C227.83,75.603 222.325,71.819 216,67.538 C209.675,63.256 201.35,57.259 197.5,54.21 C187.384,46.201 187.358,46.186 189.901,49.811 M87.626,160.292 C88.084,166.254 87.899,169.327 86.978,171.066 C84.306,176.111 78.481,182.231 74.07,184.628 C71.557,185.994 70.324,186.862 71.332,186.556 C72.339,186.25 74.231,186 75.535,186 C77.021,186 79.558,184.325 82.325,181.518 C86.959,176.818 97.793,171.002 101.918,171.001 C103.248,171 107.298,170.464 110.918,169.809 C117.5,168.617 117.5,168.617 112.072,167.791 C107.386,167.078 105.877,166.233 101.028,161.608 C97.938,158.661 93.515,155.283 91.198,154.101 C86.985,151.951 86.985,151.951 87.626,160.292 M216.731,172.21 C208.198,175.06 207.881,175.278 204.99,180.319 C200.699,187.801 200.974,189.08 207.566,192.313 C215.538,196.223 222.322,203.052 228.559,213.446 C231.718,218.71 233.994,221.651 233.996,220.473 C234.006,215.108 242.27,209.641 250.5,209.553 C254.829,209.507 255.541,209.212 255.805,207.358 C256.013,205.898 255.129,204.516 253.033,203.023 C248.24,199.61 242.999,200.942 236.303,207.275 C233.374,210.045 230.839,212.129 230.669,211.906 C230.5,211.683 229.823,209.625 229.165,207.333 C228.099,203.616 228.198,202.779 230.084,199.583 C232.699,195.15 236.186,179.662 235.367,176.117 C233.525,168.144 230.69,167.55 216.731,172.21 M96.568,181.902 C95.156,183.94 94,185.921 94,186.304 C94,186.687 95.912,187.027 98.25,187.06 C100.588,187.092 104.75,187.489 107.5,187.941 C112.151,188.705 112.729,188.561 115.785,185.881 C117.591,184.297 119.504,183 120.035,183 C121.245,183 121.243,181.934 120.029,180.013 C119.231,178.75 118.776,178.863 117.006,180.763 C114.362,183.601 112.372,183.573 105.048,180.598 C99.136,178.196 99.136,178.196 96.568,181.902 M95.439,195.975 C90.456,196.345 85.844,196.979 85.189,197.383 C83.288,198.558 83.808,201.471 86.346,203.855 C88.692,206.059 88.692,206.059 93.096,203.542 C96.251,201.738 98.989,201.021 102.75,201.012 C106.294,201.004 107.99,200.594 107.968,199.75 C107.935,198.438 105.561,194.891 104.89,195.151 C104.675,195.234 100.423,195.604 95.439,195.975 M237.586,256.973 C237.104,262.896 235.908,268.857 234.394,272.879 C231.972,279.312 231.972,279.312 234.937,290.406 C236.568,296.508 238.6,303.469 239.451,305.876 C240.303,308.282 241,311.995 241,314.126 C241,318.198 241.948,318.972 243.962,316.546 C244.8,315.537 244.958,313.124 244.481,308.665 C243.793,302.238 243.793,302.238 249.646,305.138 C252.866,306.733 257.975,308.304 261,308.629 C267.104,309.285 273.449,311.131 279.5,314.011 C290.699,319.34 303.823,320.884 318.075,318.547 C328.5,316.838 328.5,316.838 344.26,320.906 C358.507,324.584 360.495,324.873 364.963,323.915 C368.349,323.188 373.535,323.161 381.429,323.827 C392.109,324.729 398.028,324.337 400.944,322.535 C403.141,321.177 404.083,316.96 403.036,313.169 C401.916,309.114 402.589,308.358 409,306.469 C413.264,305.212 415.479,301.39 414.078,297.706 C413.56,296.343 411.368,293.957 409.207,292.403 C405.288,289.586 405.282,289.57 406.695,286.188 C408.936,280.823 408.066,276.947 404,274.193 C401.028,272.18 399.745,271.918 395.5,272.459 C392.75,272.81 387.575,273.356 384,273.672 C377.5,274.248 377.5,274.248 379.362,272.171 C381.195,270.128 381.183,270.084 378.605,269.437 C375.903,268.759 371.721,270.772 369.281,273.925 C368.285,275.212 368.442,275.82 370.142,277.25 C372.705,279.407 378.552,279.499 386,277.5 C397.445,274.428 404.662,276.313 403.83,282.158 C403.41,285.112 399.776,286.858 391.198,288.229 C378.637,290.237 379.601,292.566 393.592,294.009 C403.081,294.988 407.145,296.402 408.997,299.367 C410.033,301.026 409.952,301.562 408.509,302.617 C405.336,304.938 397.848,305.915 390.5,304.968 C386.65,304.471 383.163,304.051 382.75,304.033 C382.337,304.015 382,304.854 382,305.899 C382,307.362 383.778,308.432 389.75,310.567 C398.681,313.76 400,314.588 400,317 C400,320.584 397.781,321.096 388.892,319.56 C374.076,317.001 364.766,316.138 362.256,317.093 C358.139,318.658 351.871,318.055 340.616,315.01 C334.63,313.391 329.507,311.84 329.231,311.564 C328.955,311.288 330.063,310.297 331.694,309.361 C333.325,308.425 335.39,306.386 336.283,304.83 C337.798,302.19 338.331,302.001 344.203,302.022 C350.314,302.043 350.544,302.139 352,305.272 C353.484,308.465 353.57,308.497 359.919,308.248 C363.449,308.109 366.479,307.854 366.652,307.682 C366.824,307.509 366.448,305.998 365.816,304.322 C364.823,301.694 364.974,300.778 366.916,297.637 C368.195,295.566 370.208,293.782 371.583,293.498 C379.715,291.822 379.144,292.509 376.433,287.658 C375.06,285.203 372.504,282.509 370.545,281.454 C367.204,279.655 366.952,279.652 363.328,281.381 C361.263,282.365 357.532,284.879 355.037,286.965 C352.541,289.052 347.35,292.185 343.5,293.927 C339.65,295.669 334.793,298.758 332.707,300.792 C329.078,304.33 328.574,304.505 320.985,304.849 C313.2,305.203 312.997,305.151 309.864,302.018 C308.108,300.262 305.558,298.402 304.196,297.884 C300.984,296.663 288.379,298.322 276.365,301.548 C271.341,302.896 266.314,304 265.194,304 C262.963,304 262.546,302.692 261.522,292.5 C260.503,282.352 260.022,280.737 258.415,282.07 C256.721,283.477 254.752,282.341 247.703,275.89 C242.905,271.5 242.905,271.5 240.631,259.5 C238.356,247.5 238.356,247.5 237.586,256.973" id="Shape" fill-opacity="0.85" fill="#111111"></path>
                    <g id="right-hand" transform="translate(99.000000, 169.000000)" fill="#FCF6D0">
                        <path d="M32.448,2.084 C32.079,2.681 33.29,4.438 35.139,5.99 C38.159,8.525 38.532,8.623 38.813,6.957 C39.524,2.744 34.444,-1.145 32.448,2.084" id="Path"></path>
                        <path d="M21.655,3.829 C19.404,6.316 19.576,8.277 22.25,10.636 C25.288,13.314 36,12.868 36,10.062 C36,7.645 33.198,5.334 28.075,3.526 C22.844,1.681 23.633,1.644 21.655,3.829" id="Path"></path>
                        <path d="M8.002,22.977 C6.694,23.804 6.751,24.381 8.445,27.528 C9.958,30.338 10.84,31.01 12.443,30.58 C13.574,30.276 16.975,30.019 20,30.009 C25.5,29.99 25.5,29.99 22.5,27.482 C16.95,22.841 11.095,21.022 8.002,22.977" id="Path"></path>
                        <path d="M1.667,44.667 C0.096,46.238 1.074,50.077 3.25,50.878 C7.737,52.531 10.546,52.899 11.969,52.019 C13.2,51.259 13.123,50.793 11.463,48.959 C8.236,45.393 3.163,43.17 1.667,44.667" id="Path"></path>
                    </g>
                    <g id="left-hand" transform="translate(374.000000, 263.000000)" fill="#FCF6D0">
                        <path d="M0.4,1.162 C-0.4,2.457 3.416,6 5.611,6 C7.697,6 7.282,2.221 5.066,1.035 C2.557,-0.307 1.287,-0.273 0.4,1.162" id="Path"></path>
                        <path d="M23.584,13.863 C22.737,15.234 24.572,19.622 26.264,20.271 C27.044,20.57 28.307,20.428 29.072,19.956 C30.218,19.247 30.103,18.615 28.42,16.361 C26.122,13.283 24.47,12.43 23.584,13.863" id="Path"></path>
                        <path d="M28.485,36.048 C27.887,37.932 29.396,41.043 30.872,40.968 C31.218,40.951 32.4,40.247 33.5,39.403 C35.485,37.882 35.482,37.856 33.139,35.935 C30.146,33.481 29.293,33.502 28.485,36.048" id="Path"></path>
                        <path d="M20.39,52.426 C19.48,54.797 20.767,57.191 22.747,56.81 C23.854,56.597 24.5,55.561 24.5,54 C24.5,51.149 21.344,49.941 20.39,52.426" id="Path"></path>
                    </g>
                </g>
                <g id="head">
                    <path d="M218,1.492 C214.425,2.294 207.585,4.312 202.8,5.976 C198.015,7.639 192.141,9 189.746,9 C180.456,9 167.64,18.829 155.194,35.5 C144.871,49.326 142.52,57.406 141.363,83.038 C140.707,97.575 140.707,97.575 143.884,100.249 C145.632,101.719 147.717,104.781 148.518,107.052 C150.897,113.793 155.347,118.358 168.411,127.458 C175.213,132.196 183.168,138.599 186.089,141.688 C198.984,155.322 228.489,175.902 238.98,178.58 C252.646,182.068 266.344,178.726 271.855,170.559 C275.319,165.427 278.996,154.893 279.012,150.056 C279.018,148.1 279.7,144.025 280.526,141 C282.169,134.983 284.196,94.896 283.271,86.702 C282.973,84.063 283.278,77.886 283.949,72.974 C285.355,62.688 284.714,59.634 279.444,51.5 C277.662,48.75 275.896,44.721 275.519,42.547 C274.674,37.675 271.895,32.105 268.152,27.778 C266.592,25.975 263.452,21.283 261.173,17.352 C254.166,5.261 247.134,1.032 233,0.408 C227.807,0.178 221.971,0.6 218,1.492 M296,133.5 C296,133.775 296.225,134 296.5,134 C296.775,134 297,133.775 297,133.5 C297,133.225 296.775,133 296.5,133 C296.225,133 296,133.225 296,133.5 M0,276 C0,276.733 0.3,277.033 0.667,276.667 C1.033,276.3 1.033,275.7 0.667,275.333 C0.3,274.967 0,275.267 0,276" id="head-outline" fill="#2B1908"></path>
                    <g id="head-skin" transform="translate(153.000000, 22.000000)" fill="#FFD8A8">
                        <path d="M8.411,57.891 C6.713,58.927 4.35,61.011 3.161,62.522 C-1.402,68.324 1.177,80.762 10.251,96.712 C13.646,102.679 15.869,105.196 21.31,109.23 C25.106,112.044 28.477,113.885 28.925,113.39 C30.966,111.13 32.171,101.479 32.077,88.151 C31.98,74.544 31.817,73.422 28.93,66.487 C26.452,60.534 25.264,58.878 22.542,57.587 C18.064,55.462 12.187,55.589 8.411,57.891" id="ear-skin"></path>
                        <path d="M72.156,1.116 C68.667,1.547 63.042,2.828 59.656,3.964 C52.851,6.246 35.799,15.102 35.295,16.616 C35.118,17.145 37.117,18.149 39.737,18.847 C42.357,19.545 46.412,21.234 48.75,22.6 C54.553,25.992 54.459,28.659 48.362,33.68 C37.393,42.715 36.699,43.637 37.242,48.453 C38.058,55.69 44.499,68.074 50.563,74.063 C55.917,79.349 55.917,79.349 56.914,76.727 C58.539,72.451 62.124,70.687 66.687,71.916 C71.152,73.118 81.885,79.305 83.828,81.797 C84.663,82.866 84.986,85.097 84.696,87.794 C84.243,92.02 84.269,92.063 86.368,90.541 C94.139,84.906 98.599,83.02 104,83.086 C115.368,83.226 119.951,86.283 119.985,93.75 C120.005,98.027 121.193,97.86 123.535,93.25 C125.13,90.112 125.467,87.054 125.605,74.5 C125.696,66.25 126.102,56.572 126.507,52.993 C127.244,46.487 127.244,46.487 123.588,44.743 C121.577,43.785 118.594,43 116.958,43 C114.22,43 114.083,42.838 115.242,40.963 C116.826,38.397 120.565,37.394 122.513,39.011 C124.767,40.881 124.292,38.64 121.75,35.414 C120.512,33.843 118.943,29.845 118.263,26.529 C116.667,18.757 113.029,13.686 105.209,8.336 C95.741,1.858 85.05,-0.477 72.156,1.116" id="face-skin"></path>
                        <path d="M97.378,91.384 C90.461,94.512 88.819,101.987 94.077,106.411 C97.97,109.687 100.625,110.34 107.914,109.813 C114.245,109.355 119.957,106.557 118.183,104.783 C117.474,104.074 116.141,104.104 113.927,104.876 C101.607,109.17 89.388,99.987 100.072,94.463 C104.111,92.374 109.613,92.655 114.103,95.178 C118.903,97.876 120.299,96.844 116.708,93.253 C114.408,90.953 113.048,90.524 107.261,90.269 C102.979,90.081 99.355,90.49 97.378,91.384" id="mouth-skin"></path>
                    </g>
                    <g id="ear" transform="translate(158.000000, 81.000000)">
                        <path d="M4.5,1.665 C0.544,3.809 0.033,4.722 0.015,9.691 C-0.005,15.215 1.594,16.067 2.286,10.902 C3.156,4.417 7.491,2.234 11.682,6.171 C14.742,9.045 15.336,8.186 13.22,3.946 C11.236,-0.029 8.803,-0.666 4.5,1.665" id="Path" fill="#000000"></path>
                        <path d="M9.263,11.115 C3.899,12.665 3.197,20.234 8.363,20.826 C13.321,21.395 17.201,16.293 15.393,11.582 C14.717,9.82 13.95,9.762 9.263,11.115" id="Path" fill="#333333"></path>
                        <path d="M13.494,20.006 C11.397,22.324 11.403,22.332 15.899,23.852 C20.705,25.475 20.826,25.398 19.606,21.5 C18.359,17.516 16.221,16.993 13.494,20.006" id="Path" fill="#333333"></path>
                        <path d="M5,33.019 C5,34.266 14.084,41.797 17.5,43.384 C24.817,46.783 25,46.715 25,40.63 C25,35.126 25,35.126 21.681,35.664 C19.73,35.981 15.607,35.377 11.681,34.199 C8.006,33.096 5,32.566 5,33.019" id="Path" fill="#000000"></path>
                    </g>
                    <g id="face" transform="translate(216.000000, 53.000000)" fill="#262525">
                        <g id="eyebrow">
                            <path d="M13.7816216,2.64763636 C9.67675676,4.12581818 1.65513514,9.66981818 2.45405405,10.4770909 C2.69297297,10.7170909 5.72,9.93163636 9.18054054,8.73054545 C16.7221622,6.11236364 20.2486486,6.02618182 28.1081081,8.26690909 C36.6259459,10.6952727 36.9762162,10.6690909 38.7924324,7.46727273 C40.1632432,5.052 40.1989189,4.284 39.0043243,2.83090909 C37.172973,0.604363636 19.8054054,0.477818182 13.7816216,2.64763636" id="Path"></path>
                            <path d="M0,11.4545455 C0,11.7545455 0.243243243,12 0.540540541,12 C0.837837838,12 1.08108108,11.7545455 1.08108108,11.4545455 C1.08108108,11.1545455 0.837837838,10.9090909 0.540540541,10.9090909 C0.243243243,10.9090909 0,11.1545455 0,11.4545455" id="Path"></path>
                        </g>
                        <path d="M19.2830177,24.7758383 C23.7184152,26.1801344 26.954103,20.6579777 23.6360822,17.3484379 C21.7212513,15.4385015 18.5820108,15.5757635 16.8612506,17.6440792 C14.9911148,19.8918914 16.3331431,23.8419873 19.2830177,24.7758383 Z" id="eye-right"></path>
                        <path d="M54.8714764,23.2162252 C53.0914757,25.4874317 54.2408028,31 56.4935286,31 C58.8930008,31 59.9504713,25.2561601 57.9430697,23.1308325 C56.5002498,21.6044394 56.1272226,21.6139275 54.8714764,23.2162252" id="eye-left"></path>
                    </g>
                </g>
                <g id="flames" transform="translate(265.000000, 80.000000)">
                    <g id="flame-3" transform="translate(103.000000, 57.000000)">
                        <path d="M34.348,1.409 C32.065,2.136 26.37,4.817 21.694,7.366 C15.798,10.579 12.013,12.004 9.346,12.014 C-0.769,12.05 -2.034,15.519 6.75,19.134 C14.235,22.214 21.762,22.254 28.685,19.25 C35.793,16.166 38.852,16.407 46.584,20.657 C54.568,25.045 60.349,25.608 64.676,22.418 C69.457,18.894 76.202,4.802 74.11,2.71 C73.642,2.242 70.947,3.281 68.122,5.02 C60.772,9.542 55.912,9.447 49.635,4.655 C47.002,2.645 44.319,0.994 43.673,0.986 C43.028,0.979 41.6,0.773 40.5,0.53 C39.4,0.286 36.632,0.682 34.348,1.409" id="Path" fill="#000000"></path>
                        <path d="M29.143,7.009 C25.646,8.663 21.565,10.886 20.072,11.949 C18.58,13.011 15.14,14.448 12.429,15.14 C7.5,16.399 7.5,16.399 11.5,17.623 C17.672,19.511 21.439,19.227 27.721,16.4 C35.407,12.943 39.306,13.034 45.711,16.821 C52.479,20.823 58.023,22.322 61.362,21.053 C63.98,20.057 68.265,14.327 69.493,10.178 C70.165,7.909 70.114,7.889 67.306,9.342 C63.504,11.308 57.596,12.366 54.609,11.617 C53.287,11.285 50.317,9.435 48.008,7.507 C42.566,2.96 37.959,2.838 29.143,7.009" id="Path-Copy" fill="url(#linearGradient-4)"></path>
                    </g>
                    <g id="flame-2" transform="translate(96.000000, 0.000000)">
                        <path d="M28,1.064 C26.625,1.638 22.707,3.923 19.293,6.143 C15.332,8.718 11.533,10.35 8.793,10.651 C-1.31,11.764 -1.788,12.524 5.318,16.18 C11.424,19.322 19.882,19.127 27,15.682 C30.025,14.218 33.525,13.015 34.777,13.01 C36.03,13.004 40.17,14.632 43.978,16.627 C51.518,20.577 56.514,21.275 61.741,19.108 C64.505,17.963 69,12.701 69,10.612 C69,10.253 64.765,10.257 59.59,10.621 C50.179,11.283 50.179,11.283 44.616,6.021 C40.006,1.661 38.321,0.697 34.777,0.39 C32.425,0.186 29.375,0.49 28,1.064" id="Path" stroke="#000000" stroke-width="2" fill="#000000"></path>
                        <path d="M25.367,4.867 C22.543,6.424 18.81,8.711 17.07,9.95 C15.33,11.189 12.059,12.451 9.801,12.754 C6.127,13.246 5.883,13.442 7.483,14.611 C8.466,15.33 11.175,16.204 13.504,16.553 C16.941,17.068 19.062,16.606 24.786,14.094 C28.663,12.392 33.158,11 34.775,11 C36.393,11 40.737,12.575 44.431,14.5 C53.02,18.977 59.316,19.29 63.465,15.445 C64.982,14.039 66.043,12.71 65.824,12.491 C65.605,12.271 62.649,12.484 59.256,12.964 C51,14.131 49.452,13.602 42.824,7.352 C36.059,0.973 33.174,0.562 25.367,4.867" id="Path" fill="url(#linearGradient-5)"></path>
                    </g>
                    <g id="flame-1-outer">
                        <use fill="#000000" fill-rule="evenodd" xlink:href="#path-6"></use>
                        <use stroke="#000000" mask="url(#mask-7)" stroke-width="2" xlink:href="#path-6"></use>
                    </g>
                    <path d="M56.5,21.455 C54.85,22.213 49.478,26.46 44.562,30.894 C31.879,42.335 29.975,43.08 15.33,42.329 C8.823,41.996 3.744,41.991 4.042,42.32 C4.339,42.648 8.71,44.51 13.754,46.458 C24.659,50.67 28.613,50.842 40.043,47.605 C56.702,42.886 57.795,43.07 72.639,53.102 C82.359,59.67 90.118,62.948 96,62.969 C106.456,63.006 113.261,61.111 126.5,54.474 C133.65,50.89 140.098,47.967 140.829,47.979 C141.561,47.99 145.08,49.168 148.649,50.597 C152.219,52.025 155.355,52.979 155.617,52.716 C155.879,52.454 153.412,49.421 150.134,45.977 C144.461,40.015 143.989,39.739 140.337,40.237 C138.227,40.526 130.585,43.052 123.356,45.852 C107.544,51.976 104.48,52.539 94.986,51.066 C82.666,49.154 77.873,45.626 79.389,39.586 C80.615,34.703 84.08,33.554 99.451,32.931 C114.005,32.341 116.95,31.563 123,26.713 C125.743,24.514 126.141,24.489 116.755,27.095 C112.658,28.232 110.88,28.178 103.755,26.702 C94.407,24.764 83.493,24.482 79.318,26.069 C77.771,26.658 74.146,28.959 71.262,31.184 C66.689,34.712 65.186,35.296 59.509,35.751 C53.322,36.248 53,36.166 53,34.087 C53,30.707 55.543,26.566 59.708,23.164 C62.764,20.668 63.112,20.068 61.5,20.073 C60.4,20.076 58.15,20.698 56.5,21.455" id="flame-1-inner" fill="url(#linearGradient-8)"></path>
                </g>
            </g>
        </g>
    </g>
</svg>