<svg xmlns="http://www.w3.org/2000/svg" xmlns:xlink="http://www.w3.org/1999/xlink" width="460" height="460" viewBox="0 0 460 460"><title>icon copy 3</title><defs><linearGradient id="e" x1="103.204%" x2="3.204%" y1="46.796%" y2="53.204%"><stop offset="0%" stop-color="#f35a2e"/><stop offset="100%" stop-color="#ffc33e"/></linearGradient><linearGradient id="f" x1="3.204%" x2="103.204%" y1="53.204%" y2="46.796%"><stop offset="0%" stop-color="#f35a2e"/><stop offset="100%" stop-color="#ffc33e"/></linearGradient><linearGradient id="h" x1="50%" x2="56.407%" y1="0%" y2="100%"><stop offset="0%" stop-color="#f35a2e"/><stop offset="100%" stop-color="#ffc33e"/></linearGradient><mask id="c" width="338" height="338" x="0" y="0" fill="#fff" maskContentUnits="userSpaceOnUse" maskUnits="objectBoundingBox"><use xlink:href="#a"/></mask><mask id="d" width="338" height="338" x="0" y="0" fill="#fff" maskContentUnits="userSpaceOnUse" maskUnits="objectBoundingBox"><use xlink:href="#a"/></mask><mask id="g" width="161.039" height="49.643" x="-1" y="-1" maskContentUnits="userSpaceOnUse" maskUnits="objectBoundingBox"><path fill="#fff" d="M-.128 16.21h161.039v49.643H-.128z"/><use xlink:href="#b"/></mask><circle id="a" cx="170" cy="279" r="169"/><path id="b" d="M1 43.192c.484 1.908 20.397 8.439 20.397 8.439 5.782 1.066 8.558.77 19.677-2.102C55.612 45.775 58.025 46.011 67 52.06c13.589 9.16 20.55 12.208 29 12.699 10.521.611 19.301-1.692 31.606-8.293 12.06-6.468 14.369-6.688 24.277-2.312 3.928 1.735 7.437 2.86 7.798 2.499 1.136-1.137-1.97-5.813-8.2-12.344-7.673-8.043-8.989-8.098-26.762-1.117-11.276 4.428-14.44 5.252-21.524 5.604-8.883.443-16.599-.957-19.445-3.526-2.36-2.131-2.206-5.547.355-7.865 1.793-1.623 4.206-1.983 16.316-2.429 14.212-.525 14.212-.525 21.206-4.75 4.439-2.683 8.189-4.226 10.266-4.226 3.883 0 3.79-1.851-.189-3.791-2.302-1.123-3.748-.948-11.075 1.336-8.323 2.595-8.525 2.609-16.278 1.1-18.897-3.679-23.903-3.088-33.232 3.925C66.133 32.318 64.515 33 60.613 33c-2.537 0-4.597-.338-4.578-.75.096-2.032 2.969-5.476 7.715-9.248C66.637 20.707 69 18.36 69 17.786c0-1.321-9.112-.199-13.418 1.653-1.695.729-6.405 4.344-10.466 8.034C33.032 38.452 30.481 40 24.472 40H6c-4 0-5.618.76-5 3.192"/></defs><g fill="none" fill-rule="evenodd"><g transform="translate(7 6)"><use xlink:href="#a" fill="#fff" stroke="#cd2129" stroke-width="30" mask="url(#c)"/><use xlink:href="#a" stroke="#000" stroke-width="6" mask="url(#d)"/></g><path fill="#367547" d="M144.728 110.261c-2.074 3.981-3.762 7.811-3.75 8.511.03 1.71-6.852 15.35-14.242 28.228-3.314 5.775-7.15 12.49-8.524 14.923-3.658 6.475-17.52 20.469-25.685 25.93-3.899 2.609-12.495 7.109-19.102 10.002-6.84 2.995-14.948 7.458-18.833 10.367-12.853 9.626-22.503 24.169-26.411 39.803-2.137 8.546-4.031 12.626-7.187 15.477-5.96 5.387-12.975 27.541-12.337 38.963.352 6.316 3.282 14.535 5.181 14.535.869 0 4.162 9.699 4.162 12.26 0 1.996 8.911 9.725 11.222 9.734 1.125.004 2.497 1.827 3.955 5.256 7.835 18.424 17.991 33.022 34.275 49.267 24.699 24.639 50.127 38.046 82.677 43.592 17.905 3.051 44.171 2.387 61.371-1.551 12.683-2.904 24.977-7.246 35.375-12.495 6.285-3.172 6.285-3.172 5.955-9.951s-.33-6.779 5.693-3.958c3.313 1.552 8.263 3.096 11 3.431s7.452 1.497 10.477 2.582a9850 9850 0 0 1 12.5 4.495c8.887 3.203 22.23 4.092 35.388 2.359 9.612-1.266 9.612-1.266 23.612 2.464 11.92 3.176 14.891 3.629 20 3.051 8.052-.912 7.436-.911 20.572-.035 17.88 1.192 21.013-.569 19.583-11.001-.597-4.358-.597-4.358 4.383-6.013 5.534-1.838 7.234-4.031 6.772-8.741-.229-2.331-1.376-3.972-4.366-6.247-3.905-2.969-4.009-3.196-2.796-6.042 3.054-7.158.694-12.375-6.584-14.556-3.216-.963-5.117-.88-10.453.461-3.587.901-7.751 1.638-9.254 1.638-2.731 0-2.731 0 .147-3.005 2.465-2.572 2.742-3.394 1.924-5.719-1.207-3.432-6.829-7.276-10.641-7.276-1.604 0-5.025.851-7.602 1.89a302 302 0 0 1-9.505 3.61c-2.651.945-7.581 3.934-10.954 6.642-3.374 2.707-7.143 5.176-8.377 5.485-3.329.836-8.122-1.153-14.849-6.161-9.853-7.334-17.438-10.574-27.731-11.845-9.085-1.121-9.085-1.121-11.286-7.648-2.424-7.187-4.702-11.981-7.76-16.328-1.727-2.455-2.024-4.56-2.116-15.019-.107-12.164-.107-12.164-4.252-19.145-2.28-3.839-4.686-9.006-5.346-11.481-3.985-14.929-15.167-30.674-30.523-42.978-5.861-4.696-6.046-4.994-7.266-11.67-1.052-5.764-1.008-8.108.277-14.757.841-4.348 1.973-14.473 2.516-22.5s1.093-15.812 1.222-17.3c.209-2.419-1.036-3.572-11.75-10.877-15.605-10.639-22.938-16.459-34.31-27.229-5.129-4.857-13.004-11.224-17.5-14.148-10.086-6.561-15.112-11.689-17.166-17.513-1.622-4.6-5.033-9.036-6.933-9.017-.592.006-2.773 3.268-4.848 7.25m-4.478 162.401c-.687.278-1.25 1.142-1.25 1.921 0 1.685-.951 1.766-4.567.392-3.302-1.256-6.095-.474-7.467 2.089-.806 1.505-.545 2.587 1.189 4.932 1.77 2.394 2.97 3.004 5.908 3.004 6.123 0 10.113-1.108 9.492-2.636-2.024-4.975-2.024-4.978.255-2.978 1.87 1.642 2.225 1.686 2.742.34.741-1.931-2.174-7.754-3.828-7.647-.673.043-1.786.306-2.474.583m-24 21.433c-2.653.991-2.775 1.99-.724 5.955 1.466 2.835 1.794 2.95 8.441 2.95 3.803 0 7.153-.385 7.443-.855.597-.965-2.804-4.326-6.093-6.019-4.487-2.311-6.88-2.847-9.067-2.031m-7.583 22.572c-.367.366-.667 1.888-.667 3.381 0 2.391.548 2.852 4.593 3.871 4.367 1.1 8.467.738 8.355-.736-.028-.376-1.877-2.145-4.108-3.933-3.883-3.111-6.742-4.015-8.173-2.583M382.4 367.162c-.8 1.295 3.016 4.838 5.211 4.838 2.086 0 1.671-3.779-.545-4.965-2.509-1.342-3.779-1.308-4.666.127m23.184 12.701c-.847 1.371.988 5.759 2.68 6.408.78.299 2.043.157 2.808-.315 1.146-.709 1.031-1.341-.652-3.595-2.298-3.078-3.95-3.931-4.836-2.498m4.901 22.185c-.598 1.884.911 4.995 2.387 4.92.346-.017 1.528-.721 2.628-1.565 1.985-1.521 1.982-1.547-.361-3.468-2.993-2.454-3.846-2.433-4.654.113m-8.095 16.378c-.91 2.371.377 4.765 2.357 4.384 1.107-.213 1.753-1.249 1.753-2.81 0-2.851-3.156-4.059-4.11-1.574"/><path fill="#111" fill-opacity=".85" d="M145.821 110.288c-2.024 3.966-3.921 8.356-4.217 9.754-.525 2.483-3.851 8.73-18.104 34.006-5.945 10.543-8.512 13.924-17.027 22.433-11.042 11.033-15.862 14.24-32.657 21.729-12.649 5.641-17.049 8.408-25.177 15.837-10.223 9.344-17.388 22.43-21.139 38.611-1.185 5.112-2.433 7.727-4.937 10.342-4.692 4.901-7.381 10.749-10.555 22.956-3.788 14.573-3.503 20.812 1.31 28.644 1.994 3.245 4.175 8.303 4.847 11.241.985 4.313 2.008 5.986 5.31 8.692 2.249 1.843 5.312 3.816 6.807 4.384 1.536.584 2.724 1.805 2.733 2.808.022 2.658 8.205 18.383 14.378 27.63 5.013 7.509 23.39 29.202 24.115 28.465.173-.176-.543-8.42-1.592-18.32s-1.62-19.575-1.271-21.5 4.176-10.587 8.501-19.25C85.012 323 85.012 323 93.256 322.9c4.534-.055 9.369-.435 10.744-.846 2.653-.793 2.39-.894-14.342-5.536-2.939-.815-6.556-2.436-8.038-3.603-2.542-1.998-2.659-2.451-2.042-7.899 1.156-10.219-.366-10.169-7.376.24-8.598 12.768-8.391 12.546-13.307 14.29-6.989 2.48-15.569 2.884-22.539 1.061-8.126-2.125-8.356-2.088-8.356 1.358 0 4.161 5.126 9.723 10.228 11.096 3.453.93 5.232.729 12.158-1.377 8.121-2.469 26.236-4.499 25.201-2.824-.3.484-3.941 2.559-8.091 4.61-7.547 3.728-7.547 3.728-20.204 2.998s-12.657-.73-17.371-5.139c-3.291-3.078-4.919-5.503-5.394-8.036-.374-1.994-1.996-6.938-3.604-10.986-3.402-8.565-3.725-14.856-1.395-27.142 1.914-10.087 3.642-14.299 8.557-20.857 4.479-5.975 5.838-8.926 8.891-19.308 5.913-20.111 18.439-32.923 42.944-43.927 23.651-10.62 35.183-21.481 49.449-46.572 4.878-8.579 10.08-18.839 11.56-22.8 1.481-3.96 4.794-11.246 7.364-16.191 4.429-8.523 4.582-9.079 2.939-10.712-1.641-1.632-1.925-1.344-5.411 5.49m52.08 42.523c1.277 1.822 6.545 11.856 11.705 22.299 8.654 17.514 9.812 20.59 14.925 39.641 3.049 11.359 5.864 22.748 6.256 25.308.657 4.288 1.302 5.129 8.213 10.695 4.125 3.322 8.596 7.217 9.936 8.656 7.412 7.957 15.572 22.22 18.073 31.59.66 2.475 3.066 7.647 5.346 11.493 4.145 6.993 4.145 6.993 4.156 18.5.01 11.23.087 11.623 3.179 16.341 1.743 2.659 4.383 8.284 5.868 12.5 3.716 10.55 5.984 12.492 16.965 14.529 9.608 1.782 13.483 3.696 25.936 12.811 6.821 4.992 8.583 5.826 12.318 5.826 3.69 0 5.218-.701 9.969-4.571 6.226-5.071 12.208-8.429 15.018-8.429 1.015 0 3.973-1.35 6.575-3s5.952-2.978 7.446-2.952c4.226.075 9.547 3.143 10.324 5.952.47 1.699.724 1.918.791.684.271-4.935-5.721-9.198-11.78-8.382-8.571 1.155-20.104 6.456-27.479 12.63-4.172 3.493-5.524 4.068-9.565 4.068-4.052 0-5.67-.693-11.641-4.987-10.879-7.824-20.575-12.058-29.731-12.983-4.287-.433-7.921-.955-8.076-1.159-.154-.204-1.515-3.821-3.025-8.037-1.509-4.216-4.173-9.841-5.919-12.5-3.121-4.752-3.175-5.039-3.18-16.834-.004-12-.004-12-4.318-19.284-2.373-4.006-5.002-9.6-5.842-12.43-2.428-8.174-5.872-15.267-10.694-22.019-4.318-6.047-15.704-17.635-22.381-22.778-2.707-2.085-3.455-3.604-4.604-9.355-1.167-5.838-1.164-7.859.02-13.5 1.73-8.246 4.549-43.341 3.549-44.189-.404-.342-5.909-4.126-12.234-8.407-6.325-4.282-14.65-10.279-18.5-13.328-10.116-8.009-10.142-8.024-7.599-4.399M95.626 263.292c.458 5.962.273 9.035-.648 10.774-2.672 5.045-8.497 11.165-12.908 13.562-2.513 1.366-3.746 2.234-2.738 1.928 1.007-.306 2.899-.556 4.203-.556 1.486 0 4.023-1.675 6.79-4.482 4.634-4.7 15.468-10.516 19.593-10.517 1.33-.001 5.38-.537 9-1.192 6.582-1.192 6.582-1.192 1.154-2.018-4.686-.713-6.195-1.558-11.044-6.183-3.09-2.947-7.513-6.325-9.83-7.507-4.213-2.15-4.213-2.15-3.572 6.191m129.105 11.918c-8.533 2.85-8.85 3.068-11.741 8.109-4.291 7.482-4.016 8.761 2.576 11.994 7.972 3.91 14.756 10.739 20.993 21.133 3.159 5.264 5.435 8.205 5.437 7.027.01-5.365 8.274-10.832 16.504-10.92 4.329-.046 5.041-.341 5.305-2.195.208-1.46-.676-2.842-2.772-4.335-4.793-3.413-10.034-2.081-16.73 4.252-2.929 2.77-5.464 4.854-5.634 4.631s-.846-2.281-1.504-4.573c-1.066-3.717-.967-4.554.919-7.75 2.615-4.433 6.102-19.921 5.283-23.466-1.842-7.973-4.677-8.567-18.636-3.907m-120.163 9.692c-1.412 2.038-2.568 4.019-2.568 4.402s1.912.723 4.25.756c2.338.032 6.5.429 9.25.881 4.651.764 5.229.62 8.285-2.06 1.806-1.584 3.719-2.881 4.25-2.881 1.21 0 1.208-1.066-.006-2.987-.798-1.263-1.253-1.15-3.023.75-2.644 2.838-4.634 2.81-11.958-.165-5.912-2.402-5.912-2.402-8.48 1.304m-1.129 14.073c-4.983.37-9.595 1.004-10.25 1.408-1.901 1.175-1.381 4.088 1.157 6.472 2.346 2.204 2.346 2.204 6.75-.313 3.155-1.804 5.893-2.521 9.654-2.53 3.544-.008 5.24-.418 5.218-1.262-.033-1.312-2.407-4.859-3.078-4.599-.215.083-4.467.453-9.451.824m142.147 60.998c-.482 5.923-1.678 11.884-3.192 15.906-2.422 6.433-2.422 6.433.543 17.527 1.631 6.102 3.663 13.063 4.514 15.47s1.549 6.119 1.549 8.25c0 4.072.948 4.846 2.962 2.42.838-1.009.996-3.422.519-7.881-.688-6.427-.688-6.427 5.165-3.527 3.22 1.595 8.329 3.166 11.354 3.491 6.104.656 12.449 2.502 18.5 5.382 11.199 5.329 24.323 6.873 38.575 4.536 10.425-1.709 10.425-1.709 26.185 2.359 14.247 3.678 16.235 3.967 20.703 3.009 3.386-.727 8.572-.754 16.466-.088 10.68.902 16.599.51 19.515-1.292 2.197-1.358 3.139-5.575 2.092-9.366-1.12-4.055-.447-4.811 5.964-6.7 4.264-1.257 6.479-5.079 5.078-8.763-.518-1.363-2.71-3.749-4.871-5.303-3.919-2.817-3.925-2.833-2.512-6.215 2.241-5.365 1.371-9.241-2.695-11.995-2.972-2.013-4.255-2.275-8.5-1.734-2.75.351-7.925.897-11.5 1.213-6.5.576-6.5.576-4.638-1.501 1.833-2.043 1.821-2.087-.757-2.734-2.702-.678-6.884 1.335-9.324 4.488-.996 1.287-.839 1.895.861 3.325 2.563 2.157 8.41 2.249 15.858.25 11.445-3.072 18.662-1.187 17.83 4.658-.42 2.954-4.054 4.7-12.632 6.071-12.561 2.008-11.597 4.337 2.394 5.78 9.489.979 13.553 2.393 15.405 5.358 1.036 1.659.955 2.195-.488 3.25-3.173 2.321-10.661 3.298-18.009 2.351-3.85-.497-7.337-.917-7.75-.935s-.75.821-.75 1.866c0 1.463 1.778 2.533 7.75 4.668C406.681 416.76 408 417.588 408 420c0 3.584-2.219 4.096-11.108 2.56-14.816-2.559-24.126-3.422-26.636-2.467-4.117 1.565-10.385.962-21.64-2.083-5.986-1.619-11.109-3.17-11.385-3.446s.832-1.267 2.463-2.203 3.696-2.975 4.589-4.531c1.515-2.64 2.048-2.829 7.92-2.808 6.111.021 6.341.117 7.797 3.25 1.484 3.193 1.57 3.225 7.919 2.976 3.53-.139 6.56-.394 6.733-.566.172-.173-.204-1.684-.836-3.36-.993-2.628-.842-3.544 1.1-6.685 1.279-2.071 3.292-3.855 4.667-4.139 8.132-1.676 7.561-.989 4.85-5.84-1.373-2.455-3.929-5.149-5.888-6.204-3.341-1.799-3.593-1.802-7.217-.073-2.065.984-5.796 3.498-8.291 5.584-2.496 2.087-7.687 5.22-11.537 6.962s-8.707 4.831-10.793 6.865c-3.629 3.538-4.133 3.713-11.722 4.057-7.785.354-7.988.302-11.121-2.831-1.756-1.756-4.306-3.616-5.668-4.134-3.212-1.221-15.817.438-27.831 3.664-5.024 1.348-10.051 2.452-11.171 2.452-2.231 0-2.648-1.308-3.672-11.5-1.019-10.148-1.5-11.763-3.107-10.43-1.694 1.407-3.663.271-10.712-6.18-4.798-4.39-4.798-4.39-7.072-16.39s-2.275-12-3.045-2.527"/><g fill="#fcf6d0"><path d="M139.448 274.084c-.369.597.842 2.354 2.691 3.906 3.02 2.535 3.393 2.633 3.674.967.711-4.213-4.369-8.102-6.365-4.873M128.655 275.829c-2.251 2.487-2.079 4.448.595 6.807 3.038 2.678 13.75 2.232 13.75-.574 0-2.417-2.802-4.728-7.925-6.536-5.231-1.845-4.442-1.882-6.42.303M115.002 294.977c-1.308.827-1.251 1.404.443 4.551 1.513 2.81 2.395 3.482 3.998 3.052 1.131-.304 4.532-.561 7.557-.571 5.5-.019 5.5-.019 2.5-2.527-5.55-4.641-11.405-6.46-14.498-4.505M108.667 316.667c-1.571 1.571-.593 5.41 1.583 6.211 4.487 1.653 7.296 2.021 8.719 1.141 1.231-.76 1.154-1.226-.506-3.06-3.227-3.566-8.3-5.789-9.796-4.292"/></g><g fill="#fcf6d0"><path d="M382.4 367.162c-.8 1.295 3.016 4.838 5.211 4.838 2.086 0 1.671-3.779-.545-4.965-2.509-1.342-3.779-1.308-4.666.127M405.584 379.863c-.847 1.371.988 5.759 2.68 6.408.78.299 2.043.157 2.808-.315 1.146-.709 1.031-1.341-.652-3.595-2.298-3.078-3.95-3.931-4.836-2.498M410.485 402.048c-.598 1.884.911 4.995 2.387 4.92.346-.017 1.528-.721 2.628-1.565 1.985-1.521 1.982-1.547-.361-3.468-2.993-2.454-3.846-2.433-4.654.113M402.39 418.426c-.91 2.371.377 4.765 2.357 4.384 1.107-.213 1.753-1.249 1.753-2.81 0-2.851-3.156-4.059-4.11-1.574"/></g><path fill="#2b1908" d="M225 7.492c-3.575.802-10.415 2.82-15.2 4.484C205.015 13.639 199.141 15 196.746 15c-9.29 0-22.106 9.829-34.552 26.5-10.323 13.826-12.674 21.906-13.831 47.538-.656 14.537-.656 14.537 2.521 17.211 1.748 1.47 3.833 4.532 4.634 6.803 2.379 6.741 6.829 11.306 19.893 20.406 6.802 4.738 14.757 11.141 17.678 14.23 12.895 13.634 42.4 34.214 52.891 36.892 13.666 3.488 27.364.146 32.875-8.021 3.464-5.132 7.141-15.666 7.157-20.503.006-1.956.688-6.031 1.514-9.056 1.643-6.017 3.67-46.104 2.745-54.298-.298-2.639.007-8.816.678-13.728 1.406-10.286.765-13.34-4.505-21.474-1.782-2.75-3.548-6.779-3.925-8.953-.845-4.872-3.624-10.442-7.367-14.769-1.56-1.803-4.7-6.495-6.979-10.426C261.166 11.261 254.134 7.032 240 6.408c-5.193-.23-11.029.192-15 1.084M303 139.5c0 .275.225.5.5.5s.5-.225.5-.5-.225-.5-.5-.5-.5.225-.5.5M7 282c0 .733.3 1.033.667.667a.95.95 0 0 0 0-1.334C7.3 280.967 7 281.267 7 282"/><g fill="#ffd8a8"><path d="M168.411 85.891c-1.698 1.036-4.061 3.12-5.25 4.631-4.563 5.802-1.984 18.24 7.09 34.19 3.395 5.967 5.618 8.484 11.059 12.518 3.796 2.814 7.167 4.655 7.615 4.16 2.041-2.26 3.246-11.911 3.152-25.239-.097-13.607-.26-14.729-3.147-21.664-2.478-5.953-3.666-7.609-6.388-8.9-4.478-2.125-10.355-1.998-14.131.304M232.156 29.116c-3.489.431-9.114 1.712-12.5 2.848-6.805 2.282-23.857 11.138-24.361 12.652-.177.529 1.822 1.533 4.442 2.231s6.675 2.387 9.013 3.753c5.803 3.392 5.709 6.059-.388 11.08-10.969 9.035-11.663 9.957-11.12 14.773.816 7.237 7.257 19.621 13.321 25.61 5.354 5.286 5.354 5.286 6.351 2.664 1.625-4.276 5.21-6.04 9.773-4.811 4.465 1.202 15.198 7.389 17.141 9.881.835 1.069 1.158 3.3.868 5.997-.453 4.226-.427 4.269 1.672 2.747 7.771-5.635 12.231-7.521 17.632-7.455 11.368.14 15.951 3.197 15.985 10.664.02 4.277 1.208 4.11 3.55-.5 1.595-3.138 1.932-6.196 2.07-18.75.091-8.25.497-17.928.902-21.507.737-6.506.737-6.506-2.919-8.25-2.011-.958-4.994-1.743-6.63-1.743-2.738 0-2.875-.162-1.716-2.037 1.584-2.566 5.323-3.569 7.271-1.952 2.254 1.87 1.779-.371-.763-3.597-1.238-1.571-2.807-5.569-3.487-8.885-1.596-7.772-5.234-12.843-13.054-18.193-9.468-6.478-20.159-8.813-33.053-7.22"/><path d="M257.378 119.384c-6.917 3.128-8.559 10.603-3.301 15.027 3.893 3.276 6.548 3.929 13.837 3.402 6.331-.458 12.043-3.256 10.269-5.03-.709-.709-2.042-.679-4.256.093-12.32 4.294-24.539-4.889-13.855-10.413 4.039-2.089 9.541-1.808 14.031.715 4.8 2.698 6.196 1.666 2.605-1.925-2.3-2.3-3.66-2.729-9.447-2.984-4.282-.188-7.906.221-9.883 1.115"/></g><path fill="#000" d="M169.5 88.665c-3.956 2.144-4.467 3.057-4.485 8.026-.02 5.524 1.579 6.376 2.271 1.211.87-6.485 5.205-8.668 9.396-4.731 3.06 2.874 3.654 2.015 1.538-2.225-1.984-3.975-4.417-4.612-8.72-2.281"/><path fill="#333" d="M174.263 98.115c-5.364 1.55-6.066 9.119-.9 9.711 4.958.569 8.838-4.533 7.03-9.244-.676-1.762-1.443-1.82-6.13-.467"/><path fill="#333" d="M178.494 107.006c-2.097 2.318-2.091 2.326 2.405 3.846 4.806 1.623 4.927 1.546 3.707-2.352-1.247-3.984-3.385-4.507-6.112-1.494"/><path fill="#000" d="M170 120.019c0 1.247 9.084 8.778 12.5 10.365 7.317 3.399 7.5 3.331 7.5-2.754 0-5.504 0-5.504-3.319-4.966-1.951.317-6.074-.287-10-1.465-3.675-1.103-6.681-1.633-6.681-1.18"/><g fill="#262525"><path d="M236.782 61.648c-4.105 1.478-12.127 7.022-11.328 7.83.239.24 3.266-.546 6.727-1.747 7.541-2.619 11.068-2.705 18.927-.464 8.518 2.428 8.868 2.402 10.684-.8 1.371-2.415 1.407-3.183.212-4.636-1.831-2.227-19.199-2.353-25.222-.183M223 70.455c0 .3.243.545.54.545a.545.545 0 0 0 0-1.09.545.545 0 0 0-.54.545M242.283 83.776c4.435 1.404 7.671-4.118 4.353-7.428-1.915-1.91-5.054-1.772-6.775.296-1.87 2.248-.528 6.198 2.422 7.132M277.871 82.216c-1.78 2.271-.63 7.784 1.623 7.784 2.399 0 3.456-5.744 1.45-7.87-1.444-1.526-1.817-1.516-3.073.086"/></g><path fill="#000" d="M409.348 144.409c-2.283.727-7.978 3.408-12.654 5.957-5.896 3.213-9.681 4.638-12.348 4.648-10.115.036-11.38 3.505-2.596 7.12 7.485 3.08 15.012 3.12 21.935.116 7.108-3.084 10.167-2.843 17.899 1.407 7.984 4.388 13.765 4.951 18.092 1.761 4.781-3.524 11.526-17.616 9.434-19.708-.468-.468-3.163.571-5.988 2.31-7.35 4.522-12.21 4.427-18.487-.365-2.633-2.01-5.316-3.661-5.962-3.669-.645-.007-2.073-.213-3.173-.456s-3.868.152-6.152.879"/><path fill="url(#e)" d="M29.143 7.009c-3.497 1.654-7.578 3.877-9.071 4.94-1.492 1.062-4.932 2.499-7.643 3.191C7.5 16.399 7.5 16.399 11.5 17.623c6.172 1.888 9.939 1.604 16.221-1.223 7.686-3.457 11.585-3.366 17.99.421 6.768 4.002 12.312 5.501 15.651 4.232 2.618-.996 6.903-6.726 8.131-10.875.672-2.269.621-2.289-2.187-.836-3.802 1.966-9.71 3.024-12.697 2.275-1.322-.332-4.292-2.182-6.601-4.11-5.442-4.547-10.049-4.669-18.865-.498" transform="translate(375 143)"/><path fill="#000" stroke="#000" stroke-width="2" d="M396 87.064c-1.375.574-5.293 2.859-8.707 5.079-3.961 2.575-7.76 4.207-10.5 4.508-10.103 1.113-10.581 1.873-3.475 5.529 6.106 3.142 14.564 2.947 21.682-.498 3.025-1.464 6.525-2.667 7.777-2.672 1.253-.006 5.393 1.622 9.201 3.617 7.54 3.95 12.536 4.648 17.763 2.481 2.764-1.145 7.259-6.407 7.259-8.496 0-.359-4.235-.355-9.41.009-9.411.662-9.411.662-14.974-4.6-4.61-4.36-6.295-5.324-9.839-5.631-2.352-.204-5.402.1-6.777.674"/><path fill="url(#f)" d="M25.367 4.867C22.543 6.424 18.81 8.711 17.07 9.95s-5.011 2.501-7.269 2.804c-3.674.492-3.918.688-2.318 1.857.983.719 3.692 1.593 6.021 1.942 3.437.515 5.558.053 11.282-2.459C28.663 12.392 33.158 11 34.775 11s5.962 1.575 9.656 3.5c8.589 4.477 14.885 4.79 19.034.945 1.517-1.406 2.578-2.735 2.359-2.954s-3.175-.007-6.568.473c-8.256 1.167-9.804.638-16.432-5.612-6.765-6.379-9.65-6.79-17.457-2.485" transform="translate(368 86)"/><g transform="translate(272 86)"><use xlink:href="#b" fill="#000"/><use xlink:href="#b" stroke="#000" stroke-width="2" mask="url(#g)"/></g><path fill="url(#h)" d="M56.5 21.455c-1.65.758-7.022 5.005-11.938 9.439C31.879 42.335 29.975 43.08 15.33 42.329c-6.507-.333-11.586-.338-11.288-.009.297.328 4.668 2.19 9.712 4.138 10.905 4.212 14.859 4.384 26.289 1.147 16.659-4.719 17.752-4.535 32.596 5.497 9.72 6.568 17.479 9.846 23.361 9.867 10.456.037 17.261-1.858 30.5-8.495 7.15-3.584 13.598-6.507 14.329-6.495.732.011 4.251 1.189 7.82 2.618s6.706 2.382 6.968 2.119-2.205-3.295-5.483-6.739c-5.673-5.962-6.145-6.238-9.797-5.74-2.11.289-9.752 2.815-16.981 5.615-15.812 6.124-18.876 6.687-28.37 5.214-12.32-1.912-17.113-5.44-15.597-11.48 1.226-4.883 4.691-6.032 20.062-6.655 14.554-.59 17.499-1.368 23.549-6.218 2.743-2.199 3.141-2.224-6.245.382-4.097 1.137-5.875 1.083-13-.393-9.348-1.938-20.262-2.22-24.437-.633-1.547.589-5.172 2.89-8.056 5.115-4.573 3.528-6.076 4.112-11.753 4.567-6.187.497-6.509.415-6.509-1.664 0-3.38 2.543-7.521 6.708-10.923 3.056-2.496 3.404-3.096 1.792-3.091-1.1.003-3.35.625-5 1.382" transform="translate(272 86)"/></g></svg>